<svg width="128" height="128" viewBox="0 0 128 128" fill="none" xmlns="http://www.w3.org/2000/svg">
<g clip-path="url(#clip0_1_2)">
<path d="M60.7975 25.9569C61.2681 26.1106 61.5947 26.4197 61.9642 26.7269L83.1294 45.1817C83.8158 45.9011 83.2461 46.6225 83.1042 47.4236L97.6836 50.0894C98.5897 50.3617 98.685 51.7461 98.893 52.5667C100.874 60.3794 102.628 68.2544 104.668 76.0517C105.141 77.8542 105.765 79.6664 106.134 81.4922C106.364 82.6239 106.636 83.4017 105.685 84.263C104.448 85.3811 102.726 86.505 101.376 87.5608C97.8275 90.3375 94.3236 93.1744 90.7789 95.9569C88.5078 97.74 86.1822 99.665 83.8469 101.345C83.3861 101.678 82.8961 102.047 82.2895 101.979L53.9375 96.8242C53.4767 96.6706 53.1403 96.2622 52.9925 95.8092L49.508 81.7469C49.4264 81.71 49.3369 81.7217 49.2494 81.7256C47.8067 81.8131 46.2608 82.2 44.818 82.2875C44.3786 82.3147 43.9294 82.2836 43.5347 82.0736L21.9728 63.3622C21.6869 63.1133 21.4925 62.8586 21.3661 62.4989V61.8456C24.5725 51.3553 27.668 40.8261 30.9153 30.3514C31.0825 30.0403 31.3139 29.8089 31.6542 29.6903C41.1275 28.4128 50.6378 27.25 60.0994 25.9589H60.7994L60.7975 25.9569ZM65.9775 43.8283L54.6842 30.8803L54.4761 30.855L52.3042 31.1603L58.8842 38.7903L49.7725 31.4986C49.7103 31.4656 49.6461 31.4597 49.5761 31.4617C48.8547 31.4811 47.8864 31.6911 47.1417 31.7844C46.9064 31.8136 46.6614 31.8331 46.4242 31.8369L46.7742 32.3036L57.7194 44.8336L57.8283 44.8531L60.0994 44.5517L51.9328 35.195L52.1875 35.3369L63.2281 44.1297L63.4342 44.1569L65.9795 43.8283H65.9775ZM32.7742 33.3303L32.7042 33.4469C30.083 42.5606 27.0828 51.5711 24.4772 60.6867C24.4033 60.9453 24.2303 61.3731 24.2653 61.62C24.3372 62.1158 25.323 62.7847 25.7022 63.125C31.1778 68.0328 36.7117 72.9328 42.3603 77.6403C42.7589 77.9728 43.1653 78.3053 43.5969 78.5969L43.7369 78.2703L52.1389 50.4589C52.2322 50.1847 52.0125 49.9553 51.8336 49.7803C50.6125 48.5786 48.9986 47.3828 47.6783 46.2356C43.595 42.6831 39.5622 39.0703 35.4536 35.5469C34.5728 34.7925 33.7056 34.0167 32.7703 33.3303H32.7742ZM46.2375 79.4369L71.2217 76.2131C71.4706 76.1839 71.6319 76.0225 71.7836 75.8417L80.2575 47.7522C79.678 48.2675 79.0986 48.7867 78.5308 49.3156C74.7294 52.8408 70.9767 56.4303 67.1189 59.8836L62.2908 60.5389L64.1517 54.1728L70.5392 53.4806L71.5775 50.0389L61.5033 51.0247L55.6175 70.6889L60.3755 66.3255L58.8822 71.5055L65.2289 70.8989L64.2061 74.3211L54.1222 75.3769L55.4172 71.0019L55.3589 70.8503L46.2356 79.4369H46.2375ZM94.1175 52.0436L82.3167 49.9475L77.8328 64.8283L94.1194 52.0417L94.1175 52.0436ZM96.4975 53.6769L96.1747 53.7975C89.723 59.0689 82.935 63.9261 76.5028 69.2189C76.0419 69.9617 76.5922 71.1633 76.7808 71.9703C78.8458 80.7475 80.9944 89.4917 83.2442 98.2203C83.285 98.3739 83.3356 98.3564 83.4542 98.2922C83.6564 98.1833 84.0103 97.8625 84.2183 97.703C90.6525 92.77 96.9661 87.6678 103.356 82.6803C103.447 82.5403 103.554 82.3614 103.525 82.1903L96.4956 53.6769H96.4975ZM55.4542 70.7569V70.8036C55.4853 70.7881 55.4853 70.7725 55.4542 70.7569Z" fill="#1F1F1D"/>
<path d="M91.9222 84.1969C91.3272 83.6389 90.5164 83.4464 89.7386 83.2792C87.7689 82.8553 85.56 82.8378 84.4478 80.87C82.9642 78.2469 83.6739 74.2492 86.1686 72.4933C87.0494 71.8731 88.2239 71.7136 89.0308 72.5672C89.2 72.7481 89.2583 72.9542 89.4042 73.1369C89.4956 71.8264 89.8533 70.4731 90.6447 69.4075C92.0253 67.5506 94.4617 66.8661 95.4942 69.4503C97.0983 73.4656 94.4889 77.4692 93.0228 81.0703C92.6067 82.0911 92.2022 83.1275 91.9242 84.195L91.9222 84.1969Z" fill="#1F1F1D"/>
<path d="M38.0125 42.2086C39.1208 42.1017 40.2622 43.2178 40.8611 44.0481C42.4886 46.3056 42.3933 49.1367 41.7439 51.7267C40.6239 56.1853 39.117 60.6458 37.8725 65.0753C36.8439 67.6556 35.1386 68.5092 33.0989 66.1836C31.1058 63.9125 31.135 60.8364 31.8292 58.0519C32.9083 53.7275 34.4036 49.4264 35.5489 45.1117C35.9456 44.0267 36.6961 42.335 38.0125 42.2086ZM38.4792 46.1247C37.9892 46.1928 37.6956 46.9881 37.5556 47.3983C36.1128 51.61 35.2222 56.1853 33.8378 60.4339C33.6375 61.3147 33.6025 62.3375 34.1975 63.0783C35.055 64.1458 35.6286 63.4711 35.9825 62.4853C37.2561 57.7933 38.8117 53.1636 39.8889 48.425C39.9103 47.9836 39.8247 47.4489 39.6322 47.0503C39.4553 46.6867 38.9283 46.0644 38.4792 46.1247Z" fill="#010101"/>
<path d="M62.8508 63.8503L60.6575 65.9036L61.1786 64.0447L62.8508 63.8503Z" fill="#1F1F1D"/>
</g>
<defs>
<clipPath id="clip0_1_2">
<rect width="128" height="128" fill="white"/>
</clipPath>
</defs>
</svg>
