<?xml version="1.0" standalone="no"?>
<!DOCTYPE svg PUBLIC "-//W3C//DTD SVG 20010904//EN"
 "http://www.w3.org/TR/2001/REC-SVG-20010904/DTD/svg10.dtd">
<svg version="1.0" xmlns="http://www.w3.org/2000/svg"
 width="512.000000pt" height="512.000000pt" viewBox="0 0 512.000000 512.000000"
 preserveAspectRatio="xMidYMid meet">

<g transform="translate(0.000000,512.000000) scale(0.100000,-0.100000)"
fill="#000000" stroke="none">
<path d="M3165 4764 c-286 -74 -931 -251 -962 -264 -23 -10 -63 -33 -89 -51
l-46 -32 418 -418 c357 -357 429 -424 484 -453 79 -42 169 -61 253 -53 56 5
1143 289 1156 303 3 3 -10 35 -28 72 -30 58 -81 114 -385 420 -193 194 -374
369 -402 388 -83 57 -174 86 -284 90 -52 1 -104 1 -115 -2z"/>
<path d="M1537 4383 c-3 -5 -7 -29 -11 -54 -7 -48 -20 -59 -72 -59 -11 0 -29
-7 -40 -15 -19 -15 -19 -15 0 -30 11 -8 34 -15 50 -15 42 0 52 -9 60 -50 13
-62 17 -70 35 -70 19 0 31 35 31 86 0 24 4 26 83 39 48 8 53 40 7 49 -16 3
-43 9 -60 12 -25 5 -30 10 -30 34 0 41 -17 80 -34 80 -8 0 -17 -3 -19 -7z"/>
<path d="M1983 4322 c-50 -67 -79 -154 -178 -523 -58 -216 -108 -408 -111
-428 -5 -36 -5 -36 63 -72 179 -96 703 -406 745 -440 61 -52 133 -158 162
-241 l23 -67 56 57 56 57 104 386 103 386 -75 38 c-70 36 -109 72 -497 457
-231 230 -422 418 -425 418 -3 0 -15 -13 -26 -28z"/>
<path d="M1277 3824 c-4 -4 -10 -29 -13 -56 -6 -42 -10 -49 -33 -54 -65 -13
-85 -20 -89 -32 -4 -14 27 -28 79 -37 35 -5 37 -8 44 -53 13 -89 48 -90 60 -2
7 47 8 50 43 55 53 9 84 23 80 37 -4 12 -25 19 -89 32 -22 5 -27 13 -35 58 -8
50 -28 71 -47 52z"/>
<path d="M3835 3563 c-524 -143 -531 -145 -641 -146 l-111 -2 -88 -328 c-48
-180 -86 -330 -83 -332 3 -3 31 6 62 21 73 33 205 56 276 49 30 -4 241 -56
468 -116 469 -125 423 -123 462 -19 12 30 68 230 126 444 97 363 104 397 104
483 0 90 -1 93 -22 92 -13 -1 -261 -66 -553 -146z"/>
<path d="M1365 3304 c-85 -22 -165 -63 -495 -252 -309 -178 -386 -227 -440
-278 -36 -35 -63 -65 -60 -67 23 -22 908 -524 949 -538 73 -25 184 -25 260 1
44 14 715 392 925 520 l30 18 -60 61 c-51 52 -112 92 -434 277 -206 119 -400
225 -430 236 -54 19 -204 32 -245 22z"/>
<path d="M3120 2739 c-30 -5 -91 -27 -135 -48 -76 -38 -98 -58 -402 -363 -222
-223 -333 -341 -358 -382 -37 -63 -43 -86 -22 -86 6 0 230 -59 497 -130 267
-72 508 -133 535 -136 66 -8 155 11 230 48 50 25 123 93 433 401 204 204 372
375 372 380 0 14 -27 33 -90 66 -67 35 -856 248 -945 255 -33 3 -85 0 -115 -5z"/>
<path d="M4636 2709 c-3 -17 -6 -42 -6 -55 0 -19 -7 -24 -37 -29 -83 -14 -113
-48 -53 -59 17 -3 44 -9 60 -12 25 -5 30 -10 30 -34 0 -88 49 -108 63 -25 9
55 18 65 63 65 35 0 70 22 60 38 -4 6 -23 14 -44 17 -65 12 -70 14 -76 53 -11
61 -17 72 -35 72 -13 0 -21 -10 -25 -31z"/>
<path d="M304 2583 c-16 -43 -19 -91 -22 -461 -2 -269 1 -432 8 -465 22 -110
94 -226 179 -290 70 -53 758 -448 816 -467 27 -10 67 -21 88 -24 l37 -7 0 599
0 598 -62 13 c-86 18 -65 6 -810 437 -108 63 -201 114 -207 114 -5 0 -17 -21
-27 -47z"/>
<path d="M2150 2394 c-479 -278 -518 -299 -598 -315 l-62 -13 0 -598 0 -599
38 7 c80 14 136 41 377 179 138 79 257 150 266 157 15 12 11 30 -34 193 -45
163 -50 190 -51 290 -1 132 22 217 84 314 23 36 130 153 243 268 154 156 201
210 199 226 -6 48 -35 127 -46 127 -6 -1 -193 -107 -416 -236z"/>
<path d="M3961 1996 c-278 -278 -390 -383 -433 -408 -32 -18 -66 -38 -74 -44
-14 -9 2 -78 137 -580 83 -313 154 -571 155 -573 2 -3 28 6 57 19 42 20 115
86 380 350 181 179 342 344 358 366 63 92 94 225 79 337 -5 34 -52 222 -105
416 -88 328 -115 406 -163 469 -17 22 -17 22 -391 -352z"/>
<path d="M2164 1765 c-15 -61 6 -178 90 -490 104 -385 111 -406 147 -471 39
-70 134 -157 210 -194 38 -18 228 -74 475 -140 374 -100 419 -110 498 -110 79
0 87 2 82 18 -4 13 -163 606 -296 1102 l-9 35 -88 0 c-81 0 -125 10 -583 134
-272 73 -500 135 -507 138 -7 3 -15 -6 -19 -22z"/>
<path d="M1995 739 c-4 -5 -10 -31 -13 -56 l-7 -47 -55 -10 c-45 -9 -55 -15
-55 -31 0 -16 10 -22 55 -30 l55 -10 7 -47 c7 -54 14 -68 33 -68 15 0 20 13
30 76 6 41 8 42 53 49 89 13 93 50 7 60 l-54 7 -6 42 c-4 22 -9 49 -11 59 -6
19 -29 23 -39 6z"/>
<path d="M4556 733 c-2 -10 -7 -37 -11 -59 -6 -41 -7 -42 -55 -48 -88 -12 -87
-48 2 -61 46 -7 47 -8 54 -51 13 -92 50 -96 62 -8 l7 49 55 10 c45 8 55 14 55
30 0 16 -10 22 -55 31 l-55 10 -7 47 c-3 25 -9 51 -13 56 -10 17 -33 13 -39
-6z"/>
</g>
</svg>
